Coordinates
version=1
nRows=20
nColumns=38
inDegrees=no

Units are S.I. units (second, meters, Newtons, ...)
If the header above contains a line with 'inDegrees', this indicates whether rotational values are in degrees (yes) or radians (no).

endheader
time	pelvis_tilt	pelvis_list	pelvis_rotation	pelvis_tx	pelvis_ty	pelvis_tz	hip_flexion_r	hip_adduction_r	hip_rotation_r	knee_angle_r	ankle_angle_r	subtalar_angle_r	mtp_angle_r	hip_flexion_l	hip_adduction_l	hip_rotation_l	knee_angle_l	ankle_angle_l	subtalar_angle_l	mtp_angle_l	lumbar_extension	lumbar_bending	lumbar_rotation	arm_flex_r	arm_add_r	arm_rot_r	elbow_flex_r	pro_sup_r	wrist_flex_r	wrist_dev_r	arm_flex_l	arm_add_l	arm_rot_l	elbow_flex_l	pro_sup_l	wrist_flex_l	wrist_dev_l
45	-1.79721	1.17852	-1.63418	-0.63921	-0.310094	0.93115	-0.292846	-0.11487	-0.245037	1.2105	-0.644387	0	0	-0.0970388	-0.0442751	0.0573409	0.33585	-0.497919	0	0	-0.769437	0.184977	-0.909745	0.766506	-0.145574	1.5708	0.736289	0.555752	0	0	-0.48557	-0.313689	-0.480539	1.28127	1.47729	0	0
45.01	-2.11868	1.24402	-1.21302	-0.642618	-0.313106	0.923051	-0.180616	0.0451139	-0.313575	1.20351	-0.622142	0	0	0.136194	-0.251056	-0.186843	0.58274	-0.507221	0	0	-0.690803	0.347642	-0.941141	0.772408	-0.139054	1.5708	0.73317	0.551023	0	0	-0.428864	-0.34542	-0.460188	1.27408	1.36947	0	0
45.02	-1.85927	1.10633	-1.76629	-0.663556	-0.296262	0.943064	-0.292755	-0.194151	-0.1054	1.2363	-0.644268	0	0	-0.381397	0.019012	0.188649	0.036768	-0.530928	0	0	-0.849067	0.119434	-0.811011	0.821165	-0.192408	1.5708	0.793519	0.563828	0	0	-0.415084	-0.240629	-0.529248	1.25332	1.29047	0	0
45.03	-2.21911	1.24244	-1.1393	-0.656541	-0.304843	0.927827	-0.0930658	0.0530546	-0.311223	1.25011	-0.627463	0	0	0.119003	-0.314667	-0.274415	0.5725	-0.485728	0	0	-0.700378	0.385109	-0.947333	0.793625	-0.122433	1.5708	0.735057	0.558687	0	0	-0.582858	-0.311766	-0.534748	1.31556	1.21033	0	0
45.04	-2.26772	1.26656	-1.01098	-0.667545	-0.310575	0.926236	-0.0470967	0.0273649	-0.428054	1.25684	-0.636343	0	0	0.185215	-0.296712	-0.173555	0.61718	-0.495769	0	0	-0.638793	0.458624	-1.05678	0.803048	-0.104751	1.5708	0.728332	0.577719	0	0	-0.663926	-0.282358	-0.556146	1.35223	1.13961	0	0
45.05	-1.94039	1.24335	-1.38987	-0.669707	-0.297828	0.929716	-0.0615416	-0.0892343	-0.387964	1.32165	-0.587414	0	0	0.056358	-0.180431	-0.142767	0.549359	-0.465274	0	0	-0.705112	0.309937	-1.03671	0.775823	-0.113306	1.5708	0.746619	0.549681	0	0	-0.679186	-0.973468	0.336625	1.48427	1.06394	0	0
45.06	-1.94128	1.27279	-1.37872	-0.677952	-0.292121	0.930119	-0.00855198	-0.0978038	-0.406077	1.31573	-0.568908	0	0	0.0663163	-0.196771	-0.232114	0.518524	-0.493363	0	0	-0.662471	0.335155	-1.10963	0.777866	-0.068862	1.5708	0.718247	0.567964	0	0	-0.868537	-0.336404	-0.526773	1.5632	1.1239	0	0
45.07	-1.85337	1.16694	-1.5204	-0.684991	-0.279537	0.944216	-0.0995199	-0.140126	-0.390621	1.3047	-0.597905	0	0	-0.093821	-0.0983506	0.117321	0.504912	-0.361654	0	0	-0.78862	0.26313	-1.05688	0.764912	-0.0861482	1.5708	0.736408	0.55552	0	0	-0.78344	-0.916919	0.165117	1.51737	1.03466	0	0
45.08	-1.7908	1.12612	-1.65099	-0.697033	-0.27161	0.952722	-0.122505	-0.20241	-0.356567	1.28072	-0.603337	0	0	-0.235426	-0.0246785	0.2452	0.378057	-0.28661	0	0	-0.819619	0.224007	-1.07108	0.781278	-0.0719176	1.5708	0.733122	0.568178	0	0	-0.907591	-0.651898	-0.204286	1.54645	1.09265	0	0
45.09	-1.81434	1.18627	-1.6386	-0.706976	-0.2668	0.949621	-0.046778	-0.183285	-0.35061	1.24068	-0.564655	0	0	-0.209149	-0.0430168	0.227301	0.293935	-0.228641	0	0	-0.751768	0.278482	-1.16137	0.798985	0.00383205	1.5708	0.686444	0.646386	0	0	-0.92512	-0.259579	-0.589735	1.54532	0.99279	0	0
45.1	-1.96636	1.24273	-1.39409	-0.708572	-0.268674	0.938624	0.032999	-0.12583	-0.456209	1.23678	-0.533181	0	0	-0.0506065	-0.189768	-0.0923916	0.422984	-0.226542	0	0	-0.691919	0.35557	-1.16407	0.789484	-0.0364958	1.5708	0.725283	0.608378	0	0	-0.931511	-0.304628	-0.595041	1.60983	0.970582	0	0
45.11	-1.84859	1.24142	-1.46152	-0.719543	-0.27391	0.937487	0.0380718	-0.1647	-0.441595	1.21958	-0.501615	0	0	-0.0632571	-0.160076	-0.132985	0.431689	-0.222217	0	0	-0.6691	0.362242	-1.24137	0.798136	-0.0471444	1.5708	0.746426	0.602292	0	0	-0.90838	-0.283714	-0.619782	1.6101	0.965299	0	0
45.12	-1.87503	1.17173	-1.55453	-0.724749	-0.2554	0.947768	-0.0193384	-0.19086	-0.444282	1.16689	-0.51163	0	0	-0.299397	-0.103273	0.153525	0.191658	-0.2149	0	0	-0.779348	0.293503	-1.13757	0.799819	-0.055622	1.5708	0.758506	0.582147	0	0	-0.933788	-0.31085	-0.619258	1.6517	0.937762	0	0
45.13	-1.89011	1.15139	-1.54034	-0.730168	-0.250677	0.948672	-0.0398663	-0.20222	-0.491175	1.11253	-0.562368	0	0	-0.32703	-0.114814	0.1553	0.21851	-0.341448	0	0	-0.80664	0.293423	-1.12958	0.801567	-0.068027	1.5708	0.777569	0.562613	0	0	-0.94356	-0.332656	-0.629133	1.68763	0.917914	0	0
45.14	-1.87548	1.11969	-1.5446	-0.732327	-0.245432	0.950042	-0.0667829	-0.213632	-0.523183	1.07267	-0.607695	0	0	-0.372488	-0.115394	0.187725	0.203163	-0.397349	0	0	-0.843953	0.264715	-1.08654	0.783147	-0.109993	1.5708	0.804282	0.517782	0	0	-0.807726	-0.522413	-0.508768	1.63328	0.977954	0	0
45.15	-1.96222	1.08781	-1.474	-0.741036	-0.237397	0.955688	-0.116519	-0.169669	-0.56346	0.978939	-0.631519	0	0	-0.424833	-0.163593	0.140417	0.191468	-0.375322	0	0	-0.879029	0.299158	-1.06538	0.787556	-0.108087	1.5708	0.799953	0.509057	0	0	-0.791461	-0.515297	-0.51331	1.62815	0.988026	0	0
45.16	-1.99551	1.17796	-1.41891	-0.744479	-0.230408	0.942868	0.0152374	-0.16667	-0.571971	0.988036	-0.664372	0	0	-0.237618	-0.286204	-0.429961	0.373553	-0.29768	0	0	-0.7763	0.337374	-1.14915	0.788577	-0.0503402	1.5708	0.76592	0.536694	0	0	-0.859841	-0.490376	-0.554113	1.61964	0.943067	0	0
45.17	-2.05304	1.13877	-1.41131	-0.762099	-0.226647	0.949864	-0.0448613	-0.158132	-0.590219	0.907833	-0.574435	0	0	-0.400935	-0.190807	0.11515	0.201407	-0.240795	0	0	-0.815507	0.372451	-1.139	0.823127	-0.0549919	1.5708	0.775294	0.560712	0	0	-0.922505	-0.309405	-0.662809	1.69427	0.898061	0	0
45.18	-1.98837	1.20785	-1.44999	-0.759824	-0.218118	0.939119	0.06142	-0.197263	-0.596974	0.915898	-0.508729	0	0	-0.233195	-0.27259	-0.418127	0.384141	-0.148896	0	0	-0.737205	0.342566	-1.18605	0.794332	-0.028716	1.5708	0.745847	0.554925	0	0	-0.870263	-0.348842	-0.670151	1.60023	0.568944	0	0
45.19	-2.31862	1.18369	-0.907902	-0.790065	-0.249192	0.930598	-0.0492354	-0.00466851	-0.698132	0.600641	-0.536732	0	0	-0.255294	-0.31277	0.504062	0.251693	-0.159575	0	0	-0.611167	0.653623	-1.36335	0.876874	-0.0762714	1.5708	0.810094	0.5611	0	0	-0.805345	-0.293994	-0.650245	1.60238	0.667791	0	0
